<svg width="47" height="47" viewBox="0 0 47 47" fill="none" xmlns="http://www.w3.org/2000/svg">
<path d="M4.36953 27.5757L20.9572 43.0619C21.6457 43.7044 22.5545 44.0624 23.5 44.0624C24.4455 44.0624 25.3543 43.7044 26.0428 43.0619L42.6305 27.5757C45.4211 24.9779 47 21.3335 47 17.524V16.9915C47 10.5749 42.3643 5.10385 36.0395 4.04818C31.8535 3.35053 27.5941 4.7183 24.6016 7.71088L23.5 8.81244L22.3984 7.71088C19.4059 4.7183 15.1465 3.35053 10.9605 4.04818C4.63574 5.10385 0 10.5749 0 16.9915V17.524C0 21.3335 1.57891 24.9779 4.36953 27.5757Z" fill="#B28A4F"/>
</svg>
