<svg width="35" height="37" viewBox="0 0 35 37" fill="none" xmlns="http://www.w3.org/2000/svg">
<g id="match" clip-path="url(#clip0_50_25)">
<path id="Vector" d="M27.2968 3.22285C27.7578 2.23281 27.414 1.07656 26.4687 0.44062C25.5234 -0.195318 24.2343 -0.137505 23.3515 0.570698L3.35151 16.7582C2.57026 17.3941 2.28901 18.4131 2.65619 19.3092C3.02338 20.2053 3.96088 20.8123 4.99994 20.8123H13.7109L7.70307 33.7768C7.24213 34.7668 7.58588 35.923 8.53119 36.559C9.4765 37.1949 10.7656 37.1371 11.6484 36.4289L31.6484 20.2414C32.4296 19.6055 32.7109 18.5865 32.3437 17.6904C31.9765 16.7943 31.0468 16.1945 29.9999 16.1945H21.289L27.2968 3.22285Z" fill="#B28A4F"/>
</g>
<defs>
<clipPath id="clip0_50_25">
<rect width="35" height="37" fill="white"/>
</clipPath>
</defs>
</svg>
